<svg width="52" height="52" viewBox="0 0 52 52" fill="none" xmlns="http://www.w3.org/2000/svg">
<path d="M17.3334 30.3333V31.4167M34.6667 30.3333V31.4167M26 10.8333C27.4517 10.8333 28.925 11.0283 30.3334 11.3967C34.19 7.06333 41.2317 5.24332 44.2434 6.49999C47.2767 7.75666 43.3334 21.6667 43.3334 21.6667C44.5684 23.985 45.5 26.52 45.5 29.12C45.5 38.7833 36.7684 45.5 26 45.5C15.2317 45.5 6.50005 39 6.50005 29.12C6.50005 26.4117 7.58338 23.92 8.66671 21.6667C8.66671 21.6667 4.57171 7.75666 7.58338 6.49999C10.595 5.24332 17.81 6.99832 21.6667 11.3317C23.0881 11.0047 24.5416 10.8376 26 10.8333Z" stroke="#333333" stroke-width="2" stroke-linecap="round" stroke-linejoin="round"/>
<path d="M24.375 35.2083H27.625L26 36.8333L24.375 35.2083Z" stroke="#333333" stroke-width="2" stroke-linecap="round" stroke-linejoin="round"/>
</svg>
