<svg width="30" height="30" viewBox="0 0 30 30" fill="none" xmlns="http://www.w3.org/2000/svg">
<path fill-rule="evenodd" clip-rule="evenodd" d="M17.3509 6.20882C17.6058 6.28234 17.821 6.45407 17.9492 6.68624C18.0774 6.91841 18.1081 7.19201 18.0346 7.44683L17.9819 7.62938C19.0499 8.46207 19.3685 10.0381 18.986 11.3641C18.5112 13.0099 16.9147 14.4092 15.1334 13.8953C13.352 13.3814 12.7463 11.3468 13.2211 9.70088C13.6037 8.37496 14.7128 7.2108 16.0603 7.07499L16.1129 6.89243C16.1865 6.63761 16.3582 6.42243 16.5904 6.29422C16.8225 6.16602 17.0961 6.1353 17.3509 6.20882ZM22.7102 11.4425C22.3371 11.3549 21.9492 11.3521 21.5749 11.4345C20.9007 11.5782 20.2602 11.969 19.7687 12.5328C19.2774 13.0957 18.977 13.7834 18.9266 14.4703C18.8759 15.1582 19.0783 15.9108 19.6812 16.4365C20.2831 16.962 21.0571 17.0604 21.7314 16.9167C22.4047 16.7727 23.0451 16.3819 23.5364 15.819C24.028 15.2552 24.3284 14.5675 24.3788 13.8805C24.4096 13.4985 24.3543 13.1145 24.217 12.7567C24.3833 12.5558 24.4645 12.2979 24.4434 12.038C24.4224 11.7781 24.3006 11.5367 24.104 11.3653C23.9075 11.1939 23.6518 11.106 23.3914 11.1204C23.131 11.1349 22.8866 11.2504 22.7102 11.4425ZM8.05114 8.09692C7.73653 8.3288 7.4907 8.63256 7.31554 8.96191C6.99227 9.57014 6.8802 10.3121 6.99615 11.0502C7.11183 11.7892 7.44595 12.4601 7.93879 12.9416C8.43288 13.4224 9.1404 13.7514 9.92972 13.6274C10.72 13.5036 11.2924 12.9735 11.6156 12.3653C11.9389 11.757 12.051 11.015 11.9353 10.276C11.8194 9.53793 11.4855 8.86606 10.9924 8.38554C10.7192 8.11631 10.3891 7.91187 10.0264 7.78732C9.98534 7.52526 9.8419 7.29023 9.62759 7.13393C9.41328 6.97763 9.14566 6.91287 8.88361 6.95389C8.62155 6.99491 8.38652 7.13835 8.23022 7.35266C8.07392 7.56696 8.00916 7.83458 8.05018 8.09664L8.05114 8.09692ZM9.7484 15.0676C11.3831 14.4453 13.1757 14.3711 14.8562 14.8561C16.6721 15.38 18.1305 16.4939 19.0664 17.7558C19.9754 18.9808 20.508 20.5187 20.1188 21.8677C19.7288 23.2196 18.3339 23.783 17.0699 23.9616C15.7193 24.1517 14.0524 23.9913 12.3614 23.5034C10.6704 23.0156 9.17424 22.2634 8.13242 21.3831C7.15777 20.5586 6.27741 19.3388 6.66743 17.9869C7.05661 16.6379 8.32653 15.6201 9.74868 15.0666L9.7484 15.0676Z" fill="#333333"/>
</svg>
