<svg width="56" height="56" viewBox="0 0 56 56" fill="none" xmlns="http://www.w3.org/2000/svg">
<path d="M28.0653 40.2033C28.5818 40.2033 29.0173 40.026 29.372 39.6713C29.7251 39.3136 29.9017 38.878 29.9017 38.3647C29.9017 37.8482 29.7236 37.4127 29.3673 37.058C29.0111 36.7033 28.5756 36.526 28.0607 36.526C27.5442 36.526 27.1087 36.7041 26.754 37.0603C26.3993 37.4166 26.222 37.8521 26.222 38.367C26.222 38.8834 26.4009 39.319 26.7587 39.6737C27.1133 40.0283 27.5489 40.2057 28.0653 40.2057M26.8613 32.4777H29.113C29.1721 31.4634 29.3627 30.639 29.6847 30.0043C30.0067 29.3712 30.6686 28.5623 31.6703 27.5777C32.7126 26.537 33.4872 25.6044 33.9943 24.78C34.503 23.9556 34.7573 23.002 34.7573 21.9193C34.7573 20.0807 34.1118 18.6153 32.8207 17.5233C31.528 16.4313 29.9989 15.8853 28.2333 15.8853C26.5549 15.8853 25.13 16.3411 23.9587 17.2527C22.7873 18.1658 21.9294 19.2142 21.385 20.398L23.5317 21.287C23.905 20.4377 24.4393 19.6871 25.1347 19.0353C25.83 18.382 26.8333 18.0553 28.1447 18.0553C29.6582 18.0553 30.7627 18.4707 31.458 19.3013C32.1564 20.132 32.5057 21.0451 32.5057 22.0407C32.5057 22.8496 32.2871 23.5713 31.85 24.206C31.4144 24.8422 30.8467 25.4816 30.1467 26.124C28.7933 27.3716 27.9067 28.4293 27.4867 29.2973C27.0698 30.1638 26.8613 31.2239 26.8613 32.4777ZM28.007 49C25.1043 49 22.3743 48.4493 19.817 47.348C17.2612 46.2451 15.0376 44.7487 13.146 42.8587C11.2544 40.9702 9.75722 38.7489 8.65433 36.1947C7.55144 33.6404 7 30.9112 7 28.007C7 25.1043 7.55067 22.3743 8.652 19.817C9.75489 17.2612 11.2513 15.0376 13.1413 13.146C15.0298 11.2544 17.2511 9.75722 19.8053 8.65433C22.3596 7.55144 25.0888 7 27.993 7C30.8957 7 33.6257 7.55067 36.183 8.652C38.7388 9.75489 40.9624 11.2513 42.854 13.1413C44.7456 15.0298 46.2428 17.2511 47.3457 19.8053C48.4486 22.3596 49 25.0888 49 27.993C49 30.8957 48.4493 33.6257 47.348 36.183C46.2451 38.7388 44.7487 40.9624 42.8587 42.854C40.9702 44.7456 38.7489 46.2428 36.1947 47.3457C33.6404 48.4486 30.9112 49 28.007 49Z" fill="#333333"/>
</svg>
