<svg width="23" height="23" viewBox="0 0 23 23" fill="none" xmlns="http://www.w3.org/2000/svg">
<g clip-path="url(#clip0_6_70)">
<path d="M21.5625 2.15387L15.8075 2.15389V0.72142C15.8075 0.324311 15.4858 0.00267029 15.0887 0.00267029C14.6916 0.00267029 14.37 0.324311 14.37 0.72142V2.15353H8.61997V0.72142C8.61997 0.324311 8.29833 0.00267029 7.90122 0.00267029C7.50411 0.00267029 7.18247 0.324311 7.18247 0.72142V2.15353H1.4375C0.643641 2.15353 0 2.79717 0 3.59103V21.5598C0 22.3536 0.643641 22.9973 1.4375 22.9973H21.5625C22.3564 22.9973 23 22.3536 23 21.5598V3.59103C23 2.79751 22.3564 2.15387 21.5625 2.15387ZM21.5625 21.5598H1.4375V3.59103H7.18247V4.31517C7.18247 4.71226 7.50411 5.03392 7.90122 5.03392C8.29833 5.03392 8.61997 4.71226 8.61997 4.31517V3.59139H14.37V4.31553C14.37 4.71264 14.6916 5.03428 15.0887 5.03428C15.4858 5.03428 15.8075 4.71264 15.8075 4.31553V3.59139H21.5625V21.5598ZM16.5312 11.4976H17.9688C18.3655 11.4976 18.6875 11.1756 18.6875 10.7789V9.34137C18.6875 8.94462 18.3655 8.62262 17.9688 8.62262H16.5312C16.1345 8.62262 15.8125 8.94462 15.8125 9.34137V10.7789C15.8125 11.1756 16.1345 11.4976 16.5312 11.4976ZM16.5312 17.2473H17.9688C18.3655 17.2473 18.6875 16.9256 18.6875 16.5285V15.091C18.6875 14.6943 18.3655 14.3723 17.9688 14.3723H16.5312C16.1345 14.3723 15.8125 14.6943 15.8125 15.091V16.5285C15.8125 16.926 16.1345 17.2473 16.5312 17.2473ZM12.2188 14.3723H10.7812C10.3845 14.3723 10.0625 14.6943 10.0625 15.091V16.5285C10.0625 16.9256 10.3845 17.2473 10.7812 17.2473H12.2188C12.6155 17.2473 12.9375 16.9256 12.9375 16.5285V15.091C12.9375 14.6946 12.6155 14.3723 12.2188 14.3723ZM12.2188 8.62262H10.7812C10.3845 8.62262 10.0625 8.94462 10.0625 9.34137V10.7789C10.0625 11.1756 10.3845 11.4976 10.7812 11.4976H12.2188C12.6155 11.4976 12.9375 11.1756 12.9375 10.7789V9.34137C12.9375 8.94426 12.6155 8.62262 12.2188 8.62262ZM6.46875 8.62262H5.03125C4.6345 8.62262 4.3125 8.94462 4.3125 9.34137V10.7789C4.3125 11.1756 4.6345 11.4976 5.03125 11.4976H6.46875C6.8655 11.4976 7.1875 11.1756 7.1875 10.7789V9.34137C7.1875 8.94426 6.8655 8.62262 6.46875 8.62262ZM6.46875 14.3723H5.03125C4.6345 14.3723 4.3125 14.6943 4.3125 15.091V16.5285C4.3125 16.9256 4.6345 17.2473 5.03125 17.2473H6.46875C6.8655 17.2473 7.1875 16.9256 7.1875 16.5285V15.091C7.1875 14.6946 6.8655 14.3723 6.46875 14.3723Z" fill="#333333"/>
</g>
<defs>
<clipPath id="clip0_6_70">
<rect width="23" height="23" fill="white"/>
</clipPath>
</defs>
</svg>
